<svg xmlns="http://www.w3.org/2000/svg" viewBox="0 0 256 256">
  <defs>
    <linearGradient id="grad" x1="0%" y1="0%" x2="100%" y2="100%">
      <stop offset="0%" style="stop-color:#2563eb;stop-opacity:1" />
      <stop offset="100%" style="stop-color:#10b981;stop-opacity:1" />
    </linearGradient>
  </defs>
  <rect width="256" height="256" fill="#ffffff" opacity="0"/>
  <rect x="32" y="48" width="192" height="176" rx="16" fill="url(#grad)"/>
  <rect x="32" y="48" width="192" height="48" rx="16" fill="#1e40af"/>
  <rect x="32" y="80" width="192" height="16" fill="#1e40af"/>
  <circle cx="72" cy="68" r="6" fill="#ffffff"/>
  <circle cx="128" cy="68" r="6" fill="#ffffff"/>
  <circle cx="184" cy="68" r="6" fill="#ffffff"/>
  <rect x="48" y="112" width="32" height="28" rx="4" fill="#ffffff" opacity="0.3"/>
  <rect x="88" y="112" width="32" height="28" rx="4" fill="#ffffff" opacity="0.3"/>
  <rect x="128" y="112" width="32" height="28" rx="4" fill="#ffffff" opacity="0.5"/>
  <rect x="168" y="112" width="32" height="28" rx="4" fill="#ffffff" opacity="0.3"/>
  <rect x="48" y="148" width="32" height="28" rx="4" fill="#ffffff" opacity="0.3"/>
  <rect x="88" y="148" width="32" height="28" rx="4" fill="#ffffff" opacity="0.3"/>
  <rect x="128" y="148" width="32" height="28" rx="4" fill="#ffffff" opacity="0.3"/>
  <rect x="168" y="148" width="32" height="28" rx="4" fill="#ffffff" opacity="0.3"/>
  <path d="M 90 180 L 100 210 L 110 180 L 120 210 L 130 180 L 146 180 L 156 210 L 166 180" fill="none" stroke="#ffffff" stroke-width="8" stroke-linecap="round" stroke-linejoin="round"/>
</svg>